<svg width="202" height="23" viewBox="0 0 202 23" fill="none" xmlns="http://www.w3.org/2000/svg">
<g filter="url(#filter0_d_1_10)">
<path d="M13.088 23H7.904C7.49867 23 7.2 22.9147 7.008 22.744C6.83733 22.552 6.752 22.2533 6.752 21.848V6.136H2.048C1.64267 6.136 1.344 6.05067 1.152 5.88C0.981333 5.688 0.896 5.38933 0.896 4.984V1.112C0.896 0.706666 0.981333 0.418666 1.152 0.247999C1.344 0.0559991 1.64267 -0.0400009 2.048 -0.0400009H18.944C19.3493 -0.0400009 19.6373 0.0559991 19.808 0.247999C20 0.418666 20.096 0.706666 20.096 1.112V4.984C20.096 5.38933 20 5.688 19.808 5.88C19.6373 6.05067 19.3493 6.136 18.944 6.136H14.24V21.848C14.24 22.2533 14.144 22.552 13.952 22.744C13.7813 22.9147 13.4933 23 13.088 23ZM23.848 23C23.4427 23 23.144 22.9147 22.952 22.744C22.7813 22.552 22.696 22.2533 22.696 21.848V18.04C22.696 17.6347 22.7813 17.3467 22.952 17.176C23.144 16.984 23.4427 16.888 23.848 16.888H27.016V6.136H23.848C23.4427 6.136 23.144 6.05067 22.952 5.88C22.7813 5.688 22.696 5.38933 22.696 4.984V1.112C22.696 0.706666 22.7813 0.418666 22.952 0.247999C23.144 0.0559991 23.4427 -0.0400009 23.848 -0.0400009H37.48C37.8853 -0.0400009 38.1733 0.0559991 38.344 0.247999C38.536 0.418666 38.632 0.706666 38.632 1.112V4.984C38.632 5.38933 38.536 5.688 38.344 5.88C38.1733 6.05067 37.8853 6.136 37.48 6.136H34.376V16.888H37.48C37.8853 16.888 38.1733 16.984 38.344 17.176C38.536 17.3467 38.632 17.6347 38.632 18.04V21.848C38.632 22.2533 38.536 22.552 38.344 22.744C38.1733 22.9147 37.8853 23 37.48 23H23.848ZM57.911 23H50.103C47.4363 23 45.4523 22.4667 44.151 21.4C42.871 20.3333 42.231 18.6907 42.231 16.472V6.52C42.231 4.30133 42.871 2.65867 44.151 1.592C45.4523 0.503999 47.4363 -0.0400009 50.103 -0.0400009H57.911C58.3163 -0.0400009 58.6043 0.0559991 58.775 0.247999C58.967 0.418666 59.063 0.706666 59.063 1.112V4.984C59.063 5.38933 58.967 5.688 58.775 5.88C58.6043 6.05067 58.3163 6.136 57.911 6.136H51.479C50.8177 6.136 50.327 6.27467 50.007 6.552C49.687 6.808 49.527 7.20267 49.527 7.736V15.352C49.527 15.8853 49.687 16.28 50.007 16.536C50.327 16.7707 50.8177 16.888 51.479 16.888H57.911C58.3163 16.888 58.6043 16.984 58.775 17.176C58.967 17.3467 59.063 17.6347 59.063 18.04V21.848C59.063 22.2533 58.967 22.552 58.775 22.744C58.6043 22.9147 58.3163 23 57.911 23Z" fill="white"/>
<path d="M13.088 23H7.904C7.49867 23 7.2 22.9147 7.008 22.744C6.83733 22.552 6.752 22.2533 6.752 21.848V6.136H2.048C1.64267 6.136 1.344 6.05067 1.152 5.88C0.981333 5.688 0.896 5.38933 0.896 4.984V1.112C0.896 0.706666 0.981333 0.418666 1.152 0.247999C1.344 0.0559991 1.64267 -0.0400009 2.048 -0.0400009H18.944C19.3493 -0.0400009 19.6373 0.0559991 19.808 0.247999C20 0.418666 20.096 0.706666 20.096 1.112V4.984C20.096 5.38933 20 5.688 19.808 5.88C19.6373 6.05067 19.3493 6.136 18.944 6.136H14.24V21.848C14.24 22.2533 14.144 22.552 13.952 22.744C13.7813 22.9147 13.4933 23 13.088 23ZM23.848 23C23.4427 23 23.144 22.9147 22.952 22.744C22.7813 22.552 22.696 22.2533 22.696 21.848V18.04C22.696 17.6347 22.7813 17.3467 22.952 17.176C23.144 16.984 23.4427 16.888 23.848 16.888H27.016V6.136H23.848C23.4427 6.136 23.144 6.05067 22.952 5.88C22.7813 5.688 22.696 5.38933 22.696 4.984V1.112C22.696 0.706666 22.7813 0.418666 22.952 0.247999C23.144 0.0559991 23.4427 -0.0400009 23.848 -0.0400009H37.48C37.8853 -0.0400009 38.1733 0.0559991 38.344 0.247999C38.536 0.418666 38.632 0.706666 38.632 1.112V4.984C38.632 5.38933 38.536 5.688 38.344 5.88C38.1733 6.05067 37.8853 6.136 37.48 6.136H34.376V16.888H37.48C37.8853 16.888 38.1733 16.984 38.344 17.176C38.536 17.3467 38.632 17.6347 38.632 18.04V21.848C38.632 22.2533 38.536 22.552 38.344 22.744C38.1733 22.9147 37.8853 23 37.48 23H23.848ZM57.911 23H50.103C47.4363 23 45.4523 22.4667 44.151 21.4C42.871 20.3333 42.231 18.6907 42.231 16.472V6.52C42.231 4.30133 42.871 2.65867 44.151 1.592C45.4523 0.503999 47.4363 -0.0400009 50.103 -0.0400009H57.911C58.3163 -0.0400009 58.6043 0.0559991 58.775 0.247999C58.967 0.418666 59.063 0.706666 59.063 1.112V4.984C59.063 5.38933 58.967 5.688 58.775 5.88C58.6043 6.05067 58.3163 6.136 57.911 6.136H51.479C50.8177 6.136 50.327 6.27467 50.007 6.552C49.687 6.808 49.527 7.20267 49.527 7.736V15.352C49.527 15.8853 49.687 16.28 50.007 16.536C50.327 16.7707 50.8177 16.888 51.479 16.888H57.911C58.3163 16.888 58.6043 16.984 58.775 17.176C58.967 17.3467 59.063 17.6347 59.063 18.04V21.848C59.063 22.2533 58.967 22.552 58.775 22.744C58.6043 22.9147 58.3163 23 57.911 23Z" fill="#FF3A81"/>
<path d="M80.4318 23H75.2478C74.8424 23 74.5438 22.9147 74.3518 22.744C74.1811 22.552 74.0958 22.2533 74.0958 21.848V6.136H69.3918C68.9864 6.136 68.6878 6.05067 68.4958 5.88C68.3251 5.688 68.2398 5.38933 68.2398 4.984V1.112C68.2398 0.706666 68.3251 0.418666 68.4958 0.247999C68.6878 0.0559991 68.9864 -0.0400009 69.3918 -0.0400009H86.2878C86.6931 -0.0400009 86.9811 0.0559991 87.1518 0.247999C87.3438 0.418666 87.4398 0.706666 87.4398 1.112V4.984C87.4398 5.38933 87.3438 5.688 87.1518 5.88C86.9811 6.05067 86.6931 6.136 86.2878 6.136H81.5838V21.848C81.5838 22.2533 81.4878 22.552 81.2958 22.744C81.1251 22.9147 80.8371 23 80.4318 23ZM97.6225 6.68L96.1185 11.544H101.143L99.6385 6.68C99.5532 6.488 99.4572 6.34933 99.3505 6.264C99.2652 6.17867 99.1585 6.136 99.0305 6.136H98.2305C98.1025 6.136 97.9852 6.17867 97.8785 6.264C97.7932 6.34933 97.7078 6.488 97.6225 6.68ZM95.7985 21.848C95.7985 22.2533 95.7025 22.552 95.5105 22.744C95.3398 22.9147 95.0518 23 94.6465 23H89.9425C89.5372 23 89.2385 22.9147 89.0465 22.744C88.8758 22.552 88.7905 22.2533 88.7905 21.848V13.4C88.7905 12.76 88.8865 12.024 89.0785 11.192C89.2918 10.36 89.6118 9.38933 90.0385 8.28L92.8225 1.016C92.9505 0.653332 93.1425 0.386665 93.3985 0.216C93.6758 0.0453326 94.0278 -0.0400009 94.4545 -0.0400009H103.062C103.468 -0.0400009 103.799 0.0453326 104.055 0.216C104.332 0.386665 104.535 0.653332 104.663 1.016L107.447 8.28C107.873 9.38933 108.183 10.36 108.375 11.192C108.588 12.024 108.695 12.76 108.695 13.4V21.848C108.695 22.2533 108.599 22.552 108.407 22.744C108.236 22.9147 107.948 23 107.543 23H102.711C102.284 23 101.964 22.9147 101.751 22.744C101.559 22.552 101.463 22.2533 101.463 21.848V17.368H95.7985V21.848ZM127.974 23H120.166C117.499 23 115.515 22.4667 114.214 21.4C112.934 20.3333 112.294 18.6907 112.294 16.472V6.52C112.294 4.30133 112.934 2.65867 114.214 1.592C115.515 0.503999 117.499 -0.0400009 120.166 -0.0400009H127.974C128.379 -0.0400009 128.667 0.0559991 128.838 0.247999C129.03 0.418666 129.126 0.706666 129.126 1.112V4.984C129.126 5.38933 129.03 5.688 128.838 5.88C128.667 6.05067 128.379 6.136 127.974 6.136H121.542C120.88 6.136 120.39 6.27467 120.07 6.552C119.75 6.808 119.59 7.20267 119.59 7.736V15.352C119.59 15.8853 119.75 16.28 120.07 16.536C120.39 16.7707 120.88 16.888 121.542 16.888H127.974C128.379 16.888 128.667 16.984 128.838 17.176C129.03 17.3467 129.126 17.6347 129.126 18.04V21.848C129.126 22.2533 129.03 22.552 128.838 22.744C128.667 22.9147 128.379 23 127.974 23Z" fill="white"/>
<path d="M80.4318 23H75.2478C74.8424 23 74.5438 22.9147 74.3518 22.744C74.1811 22.552 74.0958 22.2533 74.0958 21.848V6.136H69.3918C68.9864 6.136 68.6878 6.05067 68.4958 5.88C68.3251 5.688 68.2398 5.38933 68.2398 4.984V1.112C68.2398 0.706666 68.3251 0.418666 68.4958 0.247999C68.6878 0.0559991 68.9864 -0.0400009 69.3918 -0.0400009H86.2878C86.6931 -0.0400009 86.9811 0.0559991 87.1518 0.247999C87.3438 0.418666 87.4398 0.706666 87.4398 1.112V4.984C87.4398 5.38933 87.3438 5.688 87.1518 5.88C86.9811 6.05067 86.6931 6.136 86.2878 6.136H81.5838V21.848C81.5838 22.2533 81.4878 22.552 81.2958 22.744C81.1251 22.9147 80.8371 23 80.4318 23ZM97.6225 6.68L96.1185 11.544H101.143L99.6385 6.68C99.5532 6.488 99.4572 6.34933 99.3505 6.264C99.2652 6.17867 99.1585 6.136 99.0305 6.136H98.2305C98.1025 6.136 97.9852 6.17867 97.8785 6.264C97.7932 6.34933 97.7078 6.488 97.6225 6.68ZM95.7985 21.848C95.7985 22.2533 95.7025 22.552 95.5105 22.744C95.3398 22.9147 95.0518 23 94.6465 23H89.9425C89.5372 23 89.2385 22.9147 89.0465 22.744C88.8758 22.552 88.7905 22.2533 88.7905 21.848V13.4C88.7905 12.76 88.8865 12.024 89.0785 11.192C89.2918 10.36 89.6118 9.38933 90.0385 8.28L92.8225 1.016C92.9505 0.653332 93.1425 0.386665 93.3985 0.216C93.6758 0.0453326 94.0278 -0.0400009 94.4545 -0.0400009H103.062C103.468 -0.0400009 103.799 0.0453326 104.055 0.216C104.332 0.386665 104.535 0.653332 104.663 1.016L107.447 8.28C107.873 9.38933 108.183 10.36 108.375 11.192C108.588 12.024 108.695 12.76 108.695 13.4V21.848C108.695 22.2533 108.599 22.552 108.407 22.744C108.236 22.9147 107.948 23 107.543 23H102.711C102.284 23 101.964 22.9147 101.751 22.744C101.559 22.552 101.463 22.2533 101.463 21.848V17.368H95.7985V21.848ZM127.974 23H120.166C117.499 23 115.515 22.4667 114.214 21.4C112.934 20.3333 112.294 18.6907 112.294 16.472V6.52C112.294 4.30133 112.934 2.65867 114.214 1.592C115.515 0.503999 117.499 -0.0400009 120.166 -0.0400009H127.974C128.379 -0.0400009 128.667 0.0559991 128.838 0.247999C129.03 0.418666 129.126 0.706666 129.126 1.112V4.984C129.126 5.38933 129.03 5.688 128.838 5.88C128.667 6.05067 128.379 6.136 127.974 6.136H121.542C120.88 6.136 120.39 6.27467 120.07 6.552C119.75 6.808 119.59 7.20267 119.59 7.736V15.352C119.59 15.8853 119.75 16.28 120.07 16.536C120.39 16.7707 120.88 16.888 121.542 16.888H127.974C128.379 16.888 128.667 16.984 128.838 17.176C129.03 17.3467 129.126 17.6347 129.126 18.04V21.848C129.126 22.2533 129.03 22.552 128.838 22.744C128.667 22.9147 128.379 23 127.974 23Z" fill="#FFB03F" fill-opacity="0.858824"/>
<path d="M150.494 23H145.31C144.905 23 144.606 22.9147 144.414 22.744C144.244 22.552 144.158 22.2533 144.158 21.848V6.136H139.454C139.049 6.136 138.75 6.05067 138.558 5.88C138.388 5.688 138.302 5.38933 138.302 4.984V1.112C138.302 0.706666 138.388 0.418666 138.558 0.247999C138.75 0.0559991 139.049 -0.0400009 139.454 -0.0400009H156.35C156.756 -0.0400009 157.044 0.0559991 157.214 0.247999C157.406 0.418666 157.502 0.706666 157.502 1.112V4.984C157.502 5.38933 157.406 5.688 157.214 5.88C157.044 6.05067 156.756 6.136 156.35 6.136H151.646V21.848C151.646 22.2533 151.55 22.552 151.358 22.744C151.188 22.9147 150.9 23 150.494 23ZM179.978 16.952C179.978 17.9333 179.829 18.8293 179.53 19.64C179.253 20.4293 178.741 21.112 177.994 21.688C177.269 22.2427 176.255 22.68 174.954 23C173.674 23.32 172.042 23.48 170.058 23.48C168.074 23.48 166.431 23.32 165.13 23C163.829 22.68 162.805 22.2427 162.058 21.688C161.333 21.112 160.821 20.4293 160.522 19.64C160.245 18.8293 160.106 17.9333 160.106 16.952V6.04C160.106 5.05867 160.245 4.17333 160.522 3.384C160.821 2.57333 161.333 1.88 162.058 1.304C162.805 0.727999 163.829 0.279999 165.13 -0.0400009C166.431 -0.360001 168.074 -0.52 170.058 -0.52C172.042 -0.52 173.674 -0.360001 174.954 -0.0400009C176.255 0.279999 177.269 0.727999 177.994 1.304C178.741 1.88 179.253 2.57333 179.53 3.384C179.829 4.17333 179.978 5.05867 179.978 6.04V16.952ZM167.37 15.8C167.37 16.2267 167.53 16.5893 167.85 16.888C168.17 17.1653 168.906 17.304 170.058 17.304C171.21 17.304 171.946 17.1653 172.266 16.888C172.586 16.5893 172.746 16.2267 172.746 15.8V7.192C172.746 6.78667 172.586 6.44533 172.266 6.168C171.946 5.86933 171.21 5.72 170.058 5.72C168.906 5.72 168.17 5.86933 167.85 6.168C167.53 6.44533 167.37 6.78667 167.37 7.192V15.8ZM200.052 23H185.204C184.798 23 184.5 22.9147 184.308 22.744C184.137 22.552 184.052 22.2533 184.052 21.848V1.112C184.052 0.706666 184.137 0.418666 184.308 0.247999C184.5 0.0559991 184.798 -0.0400009 185.204 -0.0400009H200.052C200.457 -0.0400009 200.745 0.0559991 200.916 0.247999C201.108 0.418666 201.204 0.706666 201.204 1.112V4.856C201.204 5.26133 201.108 5.56 200.916 5.752C200.745 5.92267 200.457 6.008 200.052 6.008H191.22V8.472H197.46C197.865 8.472 198.153 8.568 198.324 8.76C198.516 8.93067 198.612 9.21867 198.612 9.624V13.048C198.612 13.4533 198.516 13.752 198.324 13.944C198.153 14.1147 197.865 14.2 197.46 14.2H191.22V16.952H200.052C200.457 16.952 200.745 17.048 200.916 17.24C201.108 17.4107 201.204 17.6987 201.204 18.104V21.848C201.204 22.2533 201.108 22.552 200.916 22.744C200.745 22.9147 200.457 23 200.052 23Z" fill="white"/>
<path d="M150.494 23H145.31C144.905 23 144.606 22.9147 144.414 22.744C144.244 22.552 144.158 22.2533 144.158 21.848V6.136H139.454C139.049 6.136 138.75 6.05067 138.558 5.88C138.388 5.688 138.302 5.38933 138.302 4.984V1.112C138.302 0.706666 138.388 0.418666 138.558 0.247999C138.75 0.0559991 139.049 -0.0400009 139.454 -0.0400009H156.35C156.756 -0.0400009 157.044 0.0559991 157.214 0.247999C157.406 0.418666 157.502 0.706666 157.502 1.112V4.984C157.502 5.38933 157.406 5.688 157.214 5.88C157.044 6.05067 156.756 6.136 156.35 6.136H151.646V21.848C151.646 22.2533 151.55 22.552 151.358 22.744C151.188 22.9147 150.9 23 150.494 23ZM179.978 16.952C179.978 17.9333 179.829 18.8293 179.53 19.64C179.253 20.4293 178.741 21.112 177.994 21.688C177.269 22.2427 176.255 22.68 174.954 23C173.674 23.32 172.042 23.48 170.058 23.48C168.074 23.48 166.431 23.32 165.13 23C163.829 22.68 162.805 22.2427 162.058 21.688C161.333 21.112 160.821 20.4293 160.522 19.64C160.245 18.8293 160.106 17.9333 160.106 16.952V6.04C160.106 5.05867 160.245 4.17333 160.522 3.384C160.821 2.57333 161.333 1.88 162.058 1.304C162.805 0.727999 163.829 0.279999 165.13 -0.0400009C166.431 -0.360001 168.074 -0.52 170.058 -0.52C172.042 -0.52 173.674 -0.360001 174.954 -0.0400009C176.255 0.279999 177.269 0.727999 177.994 1.304C178.741 1.88 179.253 2.57333 179.53 3.384C179.829 4.17333 179.978 5.05867 179.978 6.04V16.952ZM167.37 15.8C167.37 16.2267 167.53 16.5893 167.85 16.888C168.17 17.1653 168.906 17.304 170.058 17.304C171.21 17.304 171.946 17.1653 172.266 16.888C172.586 16.5893 172.746 16.2267 172.746 15.8V7.192C172.746 6.78667 172.586 6.44533 172.266 6.168C171.946 5.86933 171.21 5.72 170.058 5.72C168.906 5.72 168.17 5.86933 167.85 6.168C167.53 6.44533 167.37 6.78667 167.37 7.192V15.8ZM200.052 23H185.204C184.798 23 184.5 22.9147 184.308 22.744C184.137 22.552 184.052 22.2533 184.052 21.848V1.112C184.052 0.706666 184.137 0.418666 184.308 0.247999C184.5 0.0559991 184.798 -0.0400009 185.204 -0.0400009H200.052C200.457 -0.0400009 200.745 0.0559991 200.916 0.247999C201.108 0.418666 201.204 0.706666 201.204 1.112V4.856C201.204 5.26133 201.108 5.56 200.916 5.752C200.745 5.92267 200.457 6.008 200.052 6.008H191.22V8.472H197.46C197.865 8.472 198.153 8.568 198.324 8.76C198.516 8.93067 198.612 9.21867 198.612 9.624V13.048C198.612 13.4533 198.516 13.752 198.324 13.944C198.153 14.1147 197.865 14.2 197.46 14.2H191.22V16.952H200.052C200.457 16.952 200.745 17.048 200.916 17.24C201.108 17.4107 201.204 17.6987 201.204 18.104V21.848C201.204 22.2533 201.108 22.552 200.916 22.744C200.745 22.9147 200.457 23 200.052 23Z" fill="#3AC4FF"/>
</g>
<defs>
<filter id="filter0_d_1_10" x="0.896" y="-0.52" width="200.308" height="28" filterUnits="userSpaceOnUse" color-interpolation-filters="sRGB">
<feFlood flood-opacity="0" result="BackgroundImageFix"/>
<feColorMatrix in="SourceAlpha" type="matrix" values="0 0 0 0 0 0 0 0 0 0 0 0 0 0 0 0 0 0 127 0" result="hardAlpha"/>
<feOffset dy="4"/>
<feComposite in2="hardAlpha" operator="out"/>
<feColorMatrix type="matrix" values="0 0 0 0 0 0 0 0 0 0 0 0 0 0 0 0 0 0 0.25 0"/>
<feBlend mode="normal" in2="BackgroundImageFix" result="effect1_dropShadow_1_10"/>
<feBlend mode="normal" in="SourceGraphic" in2="effect1_dropShadow_1_10" result="shape"/>
</filter>
</defs>
</svg>
